# Blender 5.2.0 LTS
# www.blender.org
mtllib NewTrafficLightEntity.mtl
o trafficLightEntity
v 0.449711 0.069866 -0.566111
v 0.449711 0.069866 0.566111
v 0.000000 0.069866 -0.566111
v 0.000000 3.145248 0.385817
v 0.000000 0.069866 0.566111
v 0.000000 3.145248 -0.385817
v 0.449711 2.096832 -0.566111
v 0.449711 1.048416 -0.566111
v 0.449711 2.096832 0.566111
v 0.449711 1.048416 0.566111
v 0.601878 2.585093 -0.031315
v 0.601878 2.656986 -0.031315
v 0.601878 2.656986 0.031315
v 0.601878 2.585093 0.031315
v 0.601878 0.488261 -0.031315
v 0.601878 0.560154 -0.031315
v 0.601878 0.560154 0.031315
v 0.601878 0.488261 0.031315
v 0.601878 1.536677 -0.031315
v 0.601878 1.608570 -0.031315
v 0.601878 1.608570 0.031315
v 0.601878 1.536677 0.031315
v 0.519576 3.019952 -0.394280
v 0.519576 2.222128 -0.394280
v 0.519576 2.222128 0.394280
v 0.519576 3.019952 0.394280
v 0.519576 0.923120 -0.394280
v 0.519576 0.125296 -0.394280
v 0.519576 0.125296 0.394280
v 0.519576 0.923120 0.394280
v 0.519576 1.971536 -0.394280
v 0.519576 1.173712 -0.394280
v 0.519576 1.173712 0.394280
v 0.519576 1.971536 0.394280
v 0.519576 2.966763 -0.341092
v 0.519576 2.275316 -0.341092
v 0.519576 2.275316 0.341092
v 0.519576 2.966763 0.341092
v 0.519576 0.869932 -0.341092
v 0.519576 0.178484 -0.341092
v 0.519576 0.178484 0.341092
v 0.519576 0.869932 0.341092
v 0.519576 1.918347 -0.341092
v 0.519576 1.226900 -0.341092
v 0.519576 1.226900 0.341092
v 0.519576 1.918347 0.341092
v 0.568237 2.870659 -0.244987
v 0.568237 2.371421 -0.244987
v 0.568237 2.371421 0.244987
v 0.568237 2.870659 0.244987
v 0.568237 0.773827 -0.244987
v 0.568237 0.274589 -0.244987
v 0.568237 0.274589 0.244987
v 0.568237 0.773827 0.244987
v 0.568237 1.822242 -0.244987
v 0.568237 1.323005 -0.244987
v 0.568237 1.323005 0.244987
v 0.568237 1.822242 0.244987
v 0.781620 3.019952 -0.394280
v 0.603458 2.222128 -0.394280
v 0.603458 2.222128 0.394280
v 0.781620 3.019952 0.394280
v 0.781620 0.923120 -0.394280
v 0.603458 0.125296 -0.394280
v 0.603458 0.125296 0.394280
v 0.781620 0.923120 0.394280
v 0.781620 1.971536 -0.394280
v 0.603458 1.173712 -0.394280
v 0.603458 1.173712 0.394280
v 0.781620 1.971536 0.394280
v 0.781620 2.966763 -0.341092
v 0.603458 2.275316 -0.341092
v 0.603458 2.275316 0.341092
v 0.781620 2.966763 0.341092
v 0.781620 0.869932 -0.341092
v 0.603458 0.178484 -0.341092
v 0.603458 0.178484 0.341092
v 0.781620 0.869932 0.341092
v 0.781620 1.918347 -0.341092
v 0.603458 1.226900 -0.341092
v 0.603458 1.226900 0.341092
v 0.781620 1.918347 0.341092
v 0.647792 2.621040 -0.394280
v 0.647792 2.621040 0.394280
v 0.647792 0.524208 -0.394280
v 0.647792 0.524208 0.394280
v 0.647792 1.572624 -0.394280
v 0.647792 1.572624 0.394280
v 0.647792 2.621040 -0.341092
v 0.647792 2.621040 0.341092
v 0.647792 0.524208 -0.341092
v 0.647792 0.524208 0.341092
v 0.647792 1.572624 -0.341092
v 0.647792 1.572624 0.341092
v 0.449711 3.075382 -0.566111
v 0.449711 3.075382 0.566111
v 0.000000 3.075382 -0.566111
v 0.000000 3.075382 0.566111
v 0.385817 3.145248 -0.385817
v 0.385817 3.145248 0.385817
v 0.000000 3.317552 -0.325748
v 0.000000 3.317552 0.325748
v 0.385817 3.201370 -0.385817
v 0.385817 3.201370 0.385817
v 0.000000 3.201370 -0.385817
v 0.000000 3.201370 0.385817
v 0.060962 3.317552 -0.060962
v 0.060962 3.317552 0.060962
v 0.325748 3.317552 -0.325748
v 0.325748 3.317552 0.325748
v 0.000000 3.317552 -0.060962
v 0.000000 3.317552 0.060962
v 0.000000 3.407140 -0.060962
v 0.000000 3.407140 0.060962
v 0.060962 3.363363 -0.060962
v 0.060962 3.363363 0.060962
v 0.519576 1.048416 -0.519576
v 0.519576 0.000000 -0.519576
v 0.519576 1.048416 0.519576
v 0.519576 0.000000 0.519576
v 0.000000 0.000000 0.519576
v 0.000000 3.145248 -0.519576
v 0.519576 3.145248 -0.519576
v 0.000000 0.000000 -0.519576
v 0.519576 3.145248 0.519576
v 0.000000 3.145248 0.519576
v 0.519576 2.096832 -0.519576
v 0.519576 2.096832 0.519576
v -0.449711 0.069866 -0.566111
v -0.449711 0.069866 0.566111
v -0.449711 2.096832 -0.566111
v -0.449711 1.048416 -0.566111
v -0.449711 2.096832 0.566111
v -0.449711 1.048416 0.566111
v -0.601878 2.585093 -0.031315
v -0.601878 2.656986 -0.031315
v -0.601878 2.656986 0.031315
v -0.601878 2.585093 0.031315
v -0.601878 0.488261 -0.031315
v -0.601878 0.560154 -0.031315
v -0.601878 0.560154 0.031315
v -0.601878 0.488261 0.031315
v -0.601878 1.536677 -0.031315
v -0.601878 1.608570 -0.031315
v -0.601878 1.608570 0.031315
v -0.601878 1.536677 0.031315
v -0.519576 3.019952 -0.394280
v -0.519576 2.222128 -0.394280
v -0.519576 2.222128 0.394280
v -0.519576 3.019952 0.394280
v -0.519576 0.923120 -0.394280
v -0.519576 0.125296 -0.394280
v -0.519576 0.125296 0.394280
v -0.519576 0.923120 0.394280
v -0.519576 1.971536 -0.394280
v -0.519576 1.173712 -0.394280
v -0.519576 1.173712 0.394280
v -0.519576 1.971536 0.394280
v -0.519576 2.966763 -0.341092
v -0.519576 2.275316 -0.341092
v -0.519576 2.275316 0.341092
v -0.519576 2.966763 0.341092
v -0.519576 0.869932 -0.341092
v -0.519576 0.178484 -0.341092
v -0.519576 0.178484 0.341092
v -0.519576 0.869932 0.341092
v -0.519576 1.918347 -0.341092
v -0.519576 1.226900 -0.341092
v -0.519576 1.226900 0.341092
v -0.519576 1.918347 0.341092
v -0.568237 2.870659 -0.244987
v -0.568237 2.371421 -0.244987
v -0.568237 2.371421 0.244987
v -0.568237 2.870659 0.244987
v -0.568237 0.773827 -0.244987
v -0.568237 0.274589 -0.244987
v -0.568237 0.274589 0.244987
v -0.568237 0.773827 0.244987
v -0.568237 1.822242 -0.244987
v -0.568237 1.323005 -0.244987
v -0.568237 1.323005 0.244987
v -0.568237 1.822242 0.244987
v -0.781620 3.019952 -0.394280
v -0.603458 2.222128 -0.394280
v -0.603458 2.222128 0.394280
v -0.781620 3.019952 0.394280
v -0.781620 0.923120 -0.394280
v -0.603458 0.125296 -0.394280
v -0.603458 0.125296 0.394280
v -0.781620 0.923120 0.394280
v -0.781620 1.971536 -0.394280
v -0.603458 1.173712 -0.394280
v -0.603458 1.173712 0.394280
v -0.781620 1.971536 0.394280
v -0.781620 2.966763 -0.341092
v -0.603458 2.275316 -0.341092
v -0.603458 2.275316 0.341092
v -0.781620 2.966763 0.341092
v -0.781620 0.869932 -0.341092
v -0.603458 0.178484 -0.341092
v -0.603458 0.178484 0.341092
v -0.781620 0.869932 0.341092
v -0.781620 1.918347 -0.341092
v -0.603458 1.226900 -0.341092
v -0.603458 1.226900 0.341092
v -0.781620 1.918347 0.341092
v -0.647792 2.621040 -0.394280
v -0.647792 2.621040 0.394280
v -0.647792 0.524208 -0.394280
v -0.647792 0.524208 0.394280
v -0.647792 1.572624 -0.394280
v -0.647792 1.572624 0.394280
v -0.647792 2.621040 -0.341092
v -0.647792 2.621040 0.341092
v -0.647792 0.524208 -0.341092
v -0.647792 0.524208 0.341092
v -0.647792 1.572624 -0.341092
v -0.647792 1.572624 0.341092
v -0.449711 3.075382 -0.566111
v -0.449711 3.075382 0.566111
v -0.385817 3.145248 -0.385817
v -0.385817 3.145248 0.385817
v -0.385817 3.201370 -0.385817
v -0.385817 3.201370 0.385817
v -0.060962 3.317552 -0.060962
v -0.060962 3.317552 0.060962
v -0.325748 3.317552 -0.325748
v -0.325748 3.317552 0.325748
v -0.060962 3.363363 -0.060962
v -0.060962 3.363363 0.060962
v -0.519576 1.048416 -0.519576
v -0.519576 0.000000 -0.519576
v -0.519576 1.048416 0.519576
v -0.519576 0.000000 0.519576
v -0.519576 3.145248 -0.519576
v -0.519576 3.145248 0.519576
v -0.519576 2.096832 -0.519576
v -0.519576 2.096832 0.519576
vn -0.0000 -1.0000 -0.0000
vn 1.0000 -0.0000 -0.0000
vn -0.0000 -0.0000 -1.0000
vn -0.0000 -0.0000 1.0000
vn -0.0000 1.0000 -0.0000
vn 0.8922 -0.0000 -0.4517
vn 0.8922 -0.4517 -0.0000
vn 0.8922 0.4517 -0.0000
vn 0.8922 -0.0000 0.4517
vn 0.9878 -0.0000 -0.1555
vn 0.9878 -0.1555 -0.0000
vn 0.9878 0.1555 -0.0000
vn 0.9878 -0.0000 0.1555
vn 0.9919 -0.1272 -0.0000
vn 0.9326 -0.3610 -0.0000
vn 0.9879 -0.1098 -0.1098
vn 0.9035 -0.3031 -0.3031
vn 0.8883 0.4593 -0.0000
vn -0.0000 0.4593 -0.8883
vn -0.0000 0.4593 0.8883
vn 0.5833 0.8123 -0.0000
vn 0.5544 -0.0000 -0.8323
vn 0.5544 -0.0000 0.8323
vn -0.0000 -0.5544 0.8323
vn -0.0000 0.5544 -0.8323
vn -0.0000 -0.5544 -0.8323
vn -0.0000 0.5544 0.8323
vn -1.0000 -0.0000 -0.0000
vn -0.8922 -0.0000 -0.4517
vn -0.8922 -0.4517 -0.0000
vn -0.8922 0.4517 -0.0000
vn -0.8922 -0.0000 0.4517
vn -0.9878 -0.0000 -0.1555
vn -0.9878 -0.1555 -0.0000
vn -0.9878 0.1555 -0.0000
vn -0.9878 -0.0000 0.1555
vn -0.9919 -0.1272 -0.0000
vn -0.9326 -0.3610 -0.0000
vn -0.8883 0.4593 -0.0000
vn -0.5833 0.8123 -0.0000
vn -0.5544 -0.0000 -0.8323
vn -0.5544 -0.0000 0.8323
vn 0.9879 -0.1098 0.1098
vn 0.9035 -0.3031 0.3031
vn -0.9879 -0.1098 0.1098
vn -0.9035 -0.3031 0.3031
vn -0.9879 -0.1098 -0.1098
vn -0.9035 -0.3031 -0.3031
vt 0.540108 0.471224
vt 0.636303 0.278835
vt 0.636303 0.471224
vt 0.875604 0.895538
vt 0.859948 0.877566
vt 0.875604 0.877566
vt 0.201724 0.292156
vt 0.284984 0.473130
vt 0.284984 0.847999
vt 0.310854 0.473130
vt 0.394113 0.292156
vt 0.394113 0.847999
vt 0.875604 0.371375
vt 0.859948 0.353403
vt 0.875604 0.353403
vt 0.875604 0.633456
vt 0.859948 0.615485
vt 0.875604 0.615485
vt 0.009335 0.278835
vt 0.032532 0.449331
vt 0.009335 0.472473
vt 0.201724 0.278835
vt 0.032532 0.301977
vt 0.201724 0.472473
vt 0.178527 0.301977
vt 0.178527 0.449331
vt 0.009335 0.666111
vt 0.032532 0.836607
vt 0.009335 0.859749
vt 0.201724 0.666111
vt 0.032532 0.689253
vt 0.201724 0.859749
vt 0.178527 0.689253
vt 0.178527 0.836607
vt 0.032532 0.642969
vt 0.032532 0.495615
vt 0.178527 0.495615
vt 0.178527 0.642969
vt 0.394113 0.848372
vt 0.417851 0.912311
vt 0.409643 0.976249
vt 0.347269 0.986821
vt 0.298754 0.860521
vt 0.347269 0.860521
vt 0.637138 0.663613
vt 0.621608 0.811164
vt 0.613400 0.737389
vt 0.502937 1.001604
vt 0.454423 0.875304
vt 0.502937 0.875304
vt 0.684818 0.278835
vt 0.669288 0.426386
vt 0.661080 0.352610
vt 0.700347 0.405135
vt 0.715877 0.531435
vt 0.700347 0.531435
vt 0.540108 0.811164
vt 0.588623 0.957159
vt 0.540108 0.957159
vt 0.588623 0.663613
vt 0.573093 0.811164
vt 0.564885 0.737389
vt 0.715877 0.657735
vt 0.700347 0.657735
vt 0.588623 0.811164
vt 0.637138 0.957159
vt 0.588623 0.957159
vt 0.250239 0.860521
vt 0.234709 0.988398
vt 0.226501 0.924459
vt 0.700347 0.551129
vt 0.684818 0.405135
vt 0.929017 0.824153
vt 0.953042 0.972976
vt 0.929017 0.948952
vt 0.806534 0.824153
vt 0.953042 0.800129
vt 0.782510 0.972976
vt 0.806534 0.948952
vt 0.782510 0.800129
vt 0.929017 0.424788
vt 0.953042 0.275965
vt 0.953042 0.448812
vt 0.929017 0.299989
vt 0.782510 0.275965
vt 0.782510 0.448812
vt 0.806534 0.424788
vt 0.806534 0.299989
vt 0.929017 0.562071
vt 0.953042 0.710894
vt 0.929017 0.686870
vt 0.806534 0.562071
vt 0.953042 0.538047
vt 0.782510 0.710894
vt 0.806534 0.686870
vt 0.782510 0.538047
vt 0.859948 0.895538
vt 0.859948 0.371375
vt 0.859948 0.633456
vt 0.403961 0.418651
vt 0.394113 0.354229
vt 0.403961 0.354229
vt 0.530261 0.418651
vt 0.394113 0.428475
vt 0.403961 0.288659
vt 0.540108 0.278835
vt 0.530261 0.288659
vt 0.540108 0.354229
vt 0.530261 0.354229
vt 0.403961 0.568291
vt 0.394113 0.503868
vt 0.403961 0.503868
vt 0.530261 0.568291
vt 0.394113 0.578114
vt 0.403961 0.438298
vt 0.540108 0.428475
vt 0.530261 0.438298
vt 0.540108 0.503868
vt 0.530261 0.503868
vt 0.403961 0.717930
vt 0.394113 0.653508
vt 0.403961 0.653508
vt 0.530261 0.717930
vt 0.394113 0.727754
vt 0.403961 0.587938
vt 0.540108 0.578114
vt 0.530261 0.587938
vt 0.540108 0.653508
vt 0.530261 0.653508
vt 0.273977 0.924459
vt 0.265769 0.988398
vt 0.106365 0.859749
vt 0.090835 0.987626
vt 0.082627 0.923687
vt 0.701183 0.663613
vt 0.716713 0.789913
vt 0.701183 0.789913
vt 0.454423 0.727754
vt 0.478160 0.801529
vt 0.469952 0.875304
vt 0.733332 0.405135
vt 0.684817 0.278835
vt 0.733332 0.278835
vt 0.636303 0.426386
vt 0.660040 0.500161
vt 0.651833 0.573936
vt 0.701183 0.809608
vt 0.685653 0.663614
vt 0.701183 0.663614
vt 0.660876 0.737389
vt 0.652668 0.811164
vt 0.106365 0.859749
vt 0.130103 0.923687
vt 0.121895 0.987626
vt 0.701183 0.955603
vt 0.685653 0.809608
vt 0.057850 0.859749
vt 0.042320 0.987626
vt 0.034112 0.923687
vt 0.637138 0.811164
vt 0.685653 0.957159
vt 0.540108 0.727754
vt 0.394113 0.428475
vt 0.540108 0.428475
vt 0.394113 0.278835
vt 0.611538 0.495989
vt 0.636303 0.663614
vt 0.611538 0.638849
vt 0.540108 0.663614
vt 0.540108 0.638849
vt 0.540108 0.471224
vt 0.636303 0.471224
vt 0.533991 0.870615
vt 0.523625 0.727754
vt 0.533991 0.727754
vt 0.187262 0.931179
vt 0.176883 0.859749
vt 0.187262 0.859749
vt 0.379651 0.931951
vt 0.369272 0.860521
vt 0.379651 0.860521
vt 0.379651 0.877089
vt 0.390938 0.868617
vt 0.390938 0.877089
vt 0.502937 0.738875
vt 0.523625 0.870615
vt 0.502937 0.859493
vt 0.347269 0.871642
vt 0.369272 0.931951
vt 0.347269 0.931951
vt 0.154880 0.920058
vt 0.176883 0.931179
vt 0.405400 0.776776
vt 0.454423 0.848372
vt 0.405400 0.799350
vt 0.394113 0.848372
vt 0.394113 0.799350
vt 0.442628 0.870945
vt 0.453915 0.848372
vt 0.453915 0.870945
vt 0.514224 0.887183
vt 0.502937 0.878711
vt 0.514224 0.870615
vt 0.195723 0.882322
vt 0.187262 0.859749
vt 0.195723 0.859749
vt 0.297919 0.666626
vt 0.297919 0.860521
vt 0.310854 0.847999
vt 0.310854 0.667025
vt 0.394113 0.860521
vt 0.284984 0.292156
vt 0.297919 0.278835
vt 0.201724 0.860521
vt 0.201724 0.847999
vt 0.310854 0.292156
vt 0.297919 0.472730
vt 0.284984 0.667025
vt 0.637138 0.811164
vt 0.684818 0.426386
vt 0.588623 0.811164
vt 0.250239 0.988398
vt 0.106365 0.987626
vt 0.057850 0.987626
vt 0.540108 0.495989
vt 0.154880 0.859749
vt 0.394113 0.776776
vt 0.502937 0.887183
vt 0.394113 0.976249
vt 0.442628 0.848372
vt 0.298754 0.986821
vt 0.588623 0.663613
vt 0.454423 1.001604
vt 0.636303 0.278835
vt 0.715877 0.405135
vt 0.540108 0.663613
vt 0.684818 0.551129
vt 0.298754 0.860521
vt 0.057850 0.859749
vt 0.716713 0.663613
vt 0.502937 0.727754
vt 0.684817 0.405135
vt 0.636303 0.573936
vt 0.684817 0.426386
vt 0.685653 0.663613
vt 0.106365 0.987626
vt 0.154880 0.859749
vt 0.685653 0.955603
vt 0.685653 0.811164
vt 0.379651 0.860521
vt 0.442628 0.848372
vt 0.187262 0.882322
s 0
usemtl 
f 118/1/1 121/2/1 124/3/1
f 12/4/2 14/5/2 11/6/2
f 97/7/3 7/8/3 1/9/3
f 9/10/4 98/11/4 5/12/4
f 16/13/2 18/14/2 15/15/2
f 20/16/2 22/17/2 19/18/2
f 123/19/2 24/20/2 127/21/2
f 125/22/2 23/23/2 123/19/2
f 128/24/2 26/25/2 125/22/2
f 127/21/2 25/26/2 128/24/2
f 117/27/2 28/28/2 118/29/2
f 119/30/2 27/31/2 117/27/2
f 120/32/2 30/33/2 119/30/2
f 118/29/2 29/34/2 120/32/2
f 127/21/2 32/35/2 117/27/2
f 128/24/2 31/36/2 127/21/2
f 119/30/2 34/37/2 128/24/2
f 117/27/2 33/38/2 119/30/2
f 38/39/3 90/40/3 73/41/3
f 43/42/1 82/43/1 46/44/1
f 34/45/4 69/46/4 88/47/4
f 35/48/1 74/49/1 38/50/1
f 30/51/4 65/52/4 86/53/4
f 45/54/5 80/55/5 44/56/5
f 34/57/5 67/58/5 31/59/5
f 26/60/4 61/61/4 84/62/4
f 37/56/5 72/63/5 36/64/5
f 30/65/5 63/66/5 27/67/5
f 43/68/4 80/69/4 93/70/4
f 32/71/1 69/72/1 33/54/1
f 48/73/6 35/74/6 47/75/6
f 49/76/7 36/77/7 48/73/7
f 47/75/8 38/78/8 50/79/8
f 50/79/9 37/80/9 49/76/9
f 51/81/6 40/82/6 39/83/6
f 52/84/7 41/85/7 40/82/7
f 51/81/8 42/86/8 54/87/8
f 54/87/9 41/85/9 53/88/9
f 56/89/6 43/90/6 55/91/6
f 57/92/7 44/93/7 56/89/7
f 55/91/8 46/94/8 58/95/8
f 58/95/9 45/96/9 57/92/9
f 11/6/10 47/75/10 12/4/10
f 14/5/11 48/73/11 11/6/11
f 12/4/12 50/79/12 13/97/12
f 13/97/13 49/76/13 14/5/13
f 16/13/10 52/84/10 51/81/10
f 15/15/11 53/88/11 52/84/11
f 16/13/12 54/87/12 17/98/12
f 17/98/13 53/88/13 18/14/13
f 19/18/10 55/91/10 20/16/10
f 22/17/11 56/89/11 19/18/11
f 20/16/12 58/95/12 21/99/12
f 21/99/13 57/92/13 22/17/13
f 72/100/14 83/101/14 89/102/14
f 73/103/2 60/104/2 72/100/2
f 71/105/2 62/106/2 74/107/2
f 74/107/15 84/108/15 90/109/15
f 76/110/14 85/111/14 91/112/14
f 77/113/2 64/114/2 76/110/2
f 75/115/2 66/116/2 78/117/2
f 78/117/15 86/118/15 92/119/15
f 80/120/14 87/121/14 93/122/14
f 81/123/2 68/124/2 80/120/2
f 79/125/2 70/126/2 82/127/2
f 82/127/15 88/128/15 94/129/15
f 46/68/3 94/130/3 81/131/3
f 39/132/4 76/133/4 91/134/4
f 41/135/5 76/136/5 40/137/5
f 23/138/3 83/139/3 60/140/3
f 39/141/1 78/142/1 42/143/1
f 27/144/3 85/145/3 64/146/3
f 24/147/1 61/148/1 25/149/1
f 31/45/3 87/150/3 68/151/3
f 42/152/3 92/153/3 77/154/3
f 28/155/1 65/156/1 29/147/1
f 35/157/4 72/158/4 89/159/4
f 26/160/5 59/161/5 23/66/5
f 81/123/16 88/128/16 69/162/16
f 79/125/17 87/121/17 67/114/17
f 77/113/16 86/118/16 65/126/16
f 75/115/17 85/111/17 63/163/17
f 73/103/16 84/108/16 61/164/16
f 71/105/17 83/101/17 59/165/17
f 100/166/5 123/167/5 99/168/5
f 99/168/5 122/169/5 6/170/5
f 100/166/5 126/171/5 125/172/5
f 99/173/2 104/174/2 100/175/2
f 100/176/4 106/177/4 4/178/4
f 6/179/3 103/180/3 99/181/3
f 111/182/3 115/183/3 107/184/3
f 110/185/18 103/186/18 109/187/18
f 109/188/19 105/189/19 101/190/19
f 110/191/20 106/177/20 104/192/20
f 108/193/5 109/194/5 107/195/5
f 107/195/5 101/196/5 111/197/5
f 108/193/5 102/124/5 110/138/5
f 113/198/21 116/199/21 115/200/21
f 112/201/4 116/202/4 114/203/4
f 107/204/2 116/205/2 108/206/2
f 1/9/22 117/207/22 118/208/22
f 2/209/23 119/207/23 10/210/23
f 2/209/24 121/211/24 120/208/24
f 95/212/25 122/22/25 123/213/25
f 1/9/26 124/214/26 3/215/26
f 96/216/27 126/165/27 98/11/27
f 95/212/22 127/217/22 7/8/22
f 7/8/22 117/207/22 8/218/22
f 96/216/23 128/217/23 125/213/23
f 10/210/23 128/217/23 9/10/23
f 121/2/1 232/1/1 124/3/1
f 138/5/28 136/4/28 135/6/28
f 129/9/3 131/8/3 97/7/3
f 5/12/4 220/216/4 133/10/4
f 142/14/28 140/13/28 139/15/28
f 146/17/28 144/16/28 143/18/28
f 148/20/28 235/19/28 237/21/28
f 147/23/28 236/22/28 235/19/28
f 150/25/28 238/24/28 236/22/28
f 149/26/28 237/21/28 238/24/28
f 152/28/28 231/27/28 232/29/28
f 151/31/28 233/30/28 231/27/28
f 154/33/28 234/32/28 233/30/28
f 153/34/28 232/29/28 234/32/28
f 156/35/28 237/21/28 231/27/28
f 155/36/28 238/24/28 237/21/28
f 158/37/28 233/30/28 238/24/28
f 157/38/28 231/27/28 233/30/28
f 197/41/3 214/40/3 162/39/3
f 206/43/1 167/42/1 170/44/1
f 158/45/4 212/47/4 157/219/4
f 198/49/1 159/48/1 162/50/1
f 154/51/4 210/53/4 153/220/4
f 204/55/5 169/54/5 168/56/5
f 191/58/5 158/57/5 155/59/5
f 150/60/4 208/62/4 149/221/4
f 196/63/5 161/56/5 160/64/5
f 187/66/5 154/65/5 151/67/5
f 167/68/4 217/70/4 168/222/4
f 193/72/1 156/71/1 157/54/1
f 171/75/29 160/77/29 172/73/29
f 160/77/30 173/76/30 172/73/30
f 162/78/31 171/75/31 174/79/31
f 173/76/32 162/78/32 174/79/32
f 163/83/29 176/84/29 175/81/29
f 176/84/30 165/85/30 177/88/30
f 166/86/31 175/81/31 178/87/31
f 177/88/32 166/86/32 178/87/32
f 167/90/29 180/89/29 179/91/29
f 168/93/30 181/92/30 180/89/30
f 170/94/31 179/91/31 182/95/31
f 169/96/32 182/95/32 181/92/32
f 171/75/33 135/6/33 136/4/33
f 172/73/34 138/5/34 135/6/34
f 137/97/35 171/75/35 136/4/35
f 173/76/36 137/97/36 138/5/36
f 175/81/33 139/15/33 140/13/33
f 139/15/34 177/88/34 142/14/34
f 178/87/35 140/13/35 141/98/35
f 177/88/36 141/98/36 142/14/36
f 179/91/33 143/18/33 144/16/33
f 180/89/34 146/17/34 143/18/34
f 182/95/35 144/16/35 145/99/35
f 181/92/36 145/99/36 146/17/36
f 207/101/37 196/100/37 213/102/37
f 184/104/28 197/103/28 196/100/28
f 186/106/28 195/105/28 198/107/28
f 208/108/38 198/107/38 214/109/38
f 209/111/37 200/110/37 215/112/37
f 188/114/28 201/113/28 200/110/28
f 190/116/28 199/115/28 202/117/28
f 210/118/38 202/117/38 216/119/38
f 211/121/37 204/120/37 217/122/37
f 192/124/28 205/123/28 204/120/28
f 194/126/28 203/125/28 206/127/28
f 212/128/38 206/127/38 218/129/38
f 205/131/3 218/130/3 170/68/3
f 163/132/4 215/134/4 164/223/4
f 200/136/5 165/135/5 164/137/5
f 184/140/3 207/139/3 147/138/3
f 202/142/1 163/141/1 166/143/1
f 188/146/3 209/145/3 151/144/3
f 185/148/1 148/147/1 149/149/1
f 192/151/3 211/150/3 155/45/3
f 201/154/3 216/153/3 166/152/3
f 189/156/1 152/155/1 153/147/1
f 159/157/4 213/159/4 160/224/4
f 183/161/5 150/160/5 147/66/5
f 205/123/37 212/128/37 218/129/37
f 203/125/38 211/121/38 217/122/38
f 201/113/37 210/118/37 216/119/37
f 199/115/38 209/111/38 215/112/38
f 197/103/37 208/108/37 214/109/37
f 195/105/38 207/101/38 213/102/38
f 235/167/5 222/166/5 221/168/5
f 122/169/5 221/168/5 6/170/5
f 222/166/5 126/171/5 4/225/5
f 224/174/28 221/173/28 222/175/28
f 106/177/4 222/176/4 4/178/4
f 223/180/3 6/179/3 221/181/3
f 229/183/3 111/182/3 225/184/3
f 223/186/39 228/185/39 227/187/39
f 105/189/19 227/188/19 101/190/19
f 228/191/20 106/177/20 102/226/20
f 227/194/5 226/193/5 225/195/5
f 101/196/5 225/195/5 111/197/5
f 226/193/5 102/124/5 112/227/5
f 230/199/40 113/198/40 229/200/40
f 112/201/4 230/202/4 226/228/4
f 230/205/28 225/204/28 226/206/28
f 129/9/41 231/207/41 132/218/41
f 233/207/42 130/209/42 134/210/42
f 130/209/24 121/211/24 5/12/24
f 219/212/25 122/22/25 97/7/25
f 124/214/26 129/9/26 3/215/26
f 126/165/27 220/216/27 98/11/27
f 237/217/41 219/212/41 131/8/41
f 231/207/41 131/8/41 132/218/41
f 220/216/42 238/217/42 133/10/42
f 238/217/42 134/210/42 133/10/42
f 118/1/1 120/106/1 121/2/1
f 12/4/2 13/97/2 14/5/2
f 1/9/3 3/215/3 97/7/3
f 97/7/3 95/212/3 7/8/3
f 7/8/4 8/218/4 1/9/4
f 5/12/4 2/209/4 10/210/4
f 9/10/4 96/216/4 98/11/4
f 5/12/4 10/210/4 9/10/4
f 16/13/2 17/98/2 18/14/2
f 20/16/2 21/99/2 22/17/2
f 123/19/2 23/23/2 24/20/2
f 125/22/2 26/25/2 23/23/2
f 128/24/2 25/26/2 26/25/2
f 127/21/2 24/20/2 25/26/2
f 117/27/2 27/31/2 28/28/2
f 119/30/2 30/33/2 27/31/2
f 120/32/2 29/34/2 30/33/2
f 118/29/2 28/28/2 29/34/2
f 127/21/2 31/36/2 32/35/2
f 128/24/2 34/37/2 31/36/2
f 119/30/2 33/38/2 34/37/2
f 117/27/2 32/35/2 33/38/2
f 73/41/3 37/229/3 38/39/3
f 38/39/3 74/230/3 90/40/3
f 43/42/1 79/231/1 82/43/1
f 34/45/4 33/219/4 69/46/4
f 88/47/4 70/232/4 34/45/4
f 35/48/1 71/233/1 74/49/1
f 30/51/4 29/220/4 65/52/4
f 86/53/4 66/234/4 30/51/4
f 45/54/5 81/235/5 80/55/5
f 34/57/5 70/221/5 67/58/5
f 26/60/4 25/221/4 61/61/4
f 84/62/4 62/236/4 26/60/4
f 37/56/5 73/55/5 72/63/5
f 30/65/5 66/160/5 63/66/5
f 43/68/4 44/222/4 80/69/4
f 93/70/4 79/214/4 43/68/4
f 32/71/1 68/237/1 69/72/1
f 48/73/6 36/77/6 35/74/6
f 49/76/7 37/80/7 36/77/7
f 47/75/8 35/74/8 38/78/8
f 50/79/9 38/78/9 37/80/9
f 51/81/6 52/84/6 40/82/6
f 52/84/7 53/88/7 41/85/7
f 51/81/8 39/83/8 42/86/8
f 54/87/9 42/86/9 41/85/9
f 56/89/6 44/93/6 43/90/6
f 57/92/7 45/96/7 44/93/7
f 55/91/8 43/90/8 46/94/8
f 58/95/9 46/94/9 45/96/9
f 11/6/10 48/73/10 47/75/10
f 14/5/11 49/76/11 48/73/11
f 12/4/12 47/75/12 50/79/12
f 13/97/13 50/79/13 49/76/13
f 16/13/10 15/15/10 52/84/10
f 15/15/11 18/14/11 53/88/11
f 16/13/12 51/81/12 54/87/12
f 17/98/13 54/87/13 53/88/13
f 19/18/10 56/89/10 55/91/10
f 22/17/11 57/92/11 56/89/11
f 20/16/12 55/91/12 58/95/12
f 21/99/13 58/95/13 57/92/13
f 72/100/43 60/104/43 83/101/43
f 73/103/2 61/164/2 60/104/2
f 71/105/2 59/165/2 62/106/2
f 74/107/44 62/106/44 84/108/44
f 76/110/43 64/114/43 85/111/43
f 77/113/2 65/126/2 64/114/2
f 75/115/2 63/163/2 66/116/2
f 78/117/44 66/116/44 86/118/44
f 80/120/43 68/124/43 87/121/43
f 81/123/2 69/162/2 68/124/2
f 79/125/2 67/114/2 70/126/2
f 82/127/44 70/126/44 88/128/44
f 81/131/3 45/222/3 46/68/3
f 46/68/3 82/238/3 94/130/3
f 39/132/4 40/223/4 76/133/4
f 91/134/4 75/239/4 39/132/4
f 41/135/5 77/240/5 76/136/5
f 60/140/3 24/49/3 23/138/3
f 23/138/3 59/241/3 83/139/3
f 39/141/1 75/242/1 78/142/1
f 64/146/3 28/243/3 27/144/3
f 27/144/3 63/244/3 85/145/3
f 24/147/1 60/156/1 61/148/1
f 68/151/3 32/219/3 31/45/3
f 31/45/3 67/245/3 87/150/3
f 77/154/3 41/246/3 42/152/3
f 42/152/3 78/247/3 92/153/3
f 28/155/1 64/248/1 65/156/1
f 35/157/4 36/224/4 72/158/4
f 89/159/4 71/29/4 35/157/4
f 26/160/5 62/249/5 59/161/5
f 81/123/14 94/129/14 88/128/14
f 79/125/15 93/122/15 87/121/15
f 77/113/14 92/119/14 86/118/14
f 75/115/15 91/112/15 85/111/15
f 73/103/14 90/109/14 84/108/14
f 71/105/15 89/102/15 83/101/15
f 100/166/5 125/172/5 123/167/5
f 99/168/5 123/167/5 122/169/5
f 100/166/5 4/225/5 126/171/5
f 99/173/2 103/186/2 104/174/2
f 100/176/4 104/192/4 106/177/4
f 6/179/3 105/189/3 103/180/3
f 111/182/3 113/250/3 115/183/3
f 110/185/18 104/174/18 103/186/18
f 109/188/19 103/180/19 105/189/19
f 110/191/20 102/226/20 106/177/20
f 108/193/5 110/138/5 109/194/5
f 107/195/5 109/194/5 101/196/5
f 108/193/5 112/227/5 102/124/5
f 113/198/21 114/251/21 116/199/21
f 112/201/4 108/228/4 116/202/4
f 107/204/2 115/252/2 116/205/2
f 1/9/22 8/218/22 117/207/22
f 2/209/23 120/208/23 119/207/23
f 2/209/24 5/12/24 121/211/24
f 95/212/25 97/7/25 122/22/25
f 1/9/26 118/208/26 124/214/26
f 96/216/27 125/213/27 126/165/27
f 95/212/22 123/213/22 127/217/22
f 7/8/22 127/217/22 117/207/22
f 96/216/23 9/10/23 128/217/23
f 10/210/23 119/207/23 128/217/23
f 121/2/1 234/106/1 232/1/1
f 138/5/28 137/97/28 136/4/28
f 97/7/3 3/215/3 129/9/3
f 129/9/4 132/218/4 131/8/4
f 131/8/3 219/212/3 97/7/3
f 134/210/4 130/209/4 5/12/4
f 5/12/4 98/11/4 220/216/4
f 133/10/4 134/210/4 5/12/4
f 142/14/28 141/98/28 140/13/28
f 146/17/28 145/99/28 144/16/28
f 148/20/28 147/23/28 235/19/28
f 147/23/28 150/25/28 236/22/28
f 150/25/28 149/26/28 238/24/28
f 149/26/28 148/20/28 237/21/28
f 152/28/28 151/31/28 231/27/28
f 151/31/28 154/33/28 233/30/28
f 154/33/28 153/34/28 234/32/28
f 153/34/28 152/28/28 232/29/28
f 156/35/28 155/36/28 237/21/28
f 155/36/28 158/37/28 238/24/28
f 158/37/28 157/38/28 233/30/28
f 157/38/28 156/35/28 231/27/28
f 162/39/3 161/229/3 197/41/3
f 214/40/3 198/230/3 162/39/3
f 206/43/1 203/231/1 167/42/1
f 158/45/4 194/232/4 212/47/4
f 212/47/4 193/46/4 157/219/4
f 198/49/1 195/233/1 159/48/1
f 154/51/4 190/234/4 210/53/4
f 210/53/4 189/52/4 153/220/4
f 204/55/5 205/235/5 169/54/5
f 191/58/5 194/221/5 158/57/5
f 150/60/4 186/236/4 208/62/4
f 208/62/4 185/61/4 149/221/4
f 196/63/5 197/55/5 161/56/5
f 187/66/5 190/160/5 154/65/5
f 167/68/4 203/214/4 217/70/4
f 217/70/4 204/69/4 168/222/4
f 193/72/1 192/237/1 156/71/1
f 171/75/29 159/74/29 160/77/29
f 160/77/30 161/80/30 173/76/30
f 162/78/31 159/74/31 171/75/31
f 173/76/32 161/80/32 162/78/32
f 163/83/29 164/82/29 176/84/29
f 176/84/30 164/82/30 165/85/30
f 166/86/31 163/83/31 175/81/31
f 177/88/32 165/85/32 166/86/32
f 167/90/29 168/93/29 180/89/29
f 168/93/30 169/96/30 181/92/30
f 170/94/31 167/90/31 179/91/31
f 169/96/32 170/94/32 182/95/32
f 171/75/33 172/73/33 135/6/33
f 172/73/34 173/76/34 138/5/34
f 137/97/35 174/79/35 171/75/35
f 173/76/36 174/79/36 137/97/36
f 175/81/33 176/84/33 139/15/33
f 139/15/34 176/84/34 177/88/34
f 178/87/35 175/81/35 140/13/35
f 177/88/36 178/87/36 141/98/36
f 179/91/33 180/89/33 143/18/33
f 180/89/34 181/92/34 146/17/34
f 182/95/35 179/91/35 144/16/35
f 181/92/36 182/95/36 145/99/36
f 207/101/45 184/104/45 196/100/45
f 184/104/28 185/164/28 197/103/28
f 186/106/28 183/165/28 195/105/28
f 208/108/46 186/106/46 198/107/46
f 209/111/45 188/114/45 200/110/45
f 188/114/28 189/126/28 201/113/28
f 190/116/28 187/163/28 199/115/28
f 210/118/46 190/116/46 202/117/46
f 211/121/45 192/124/45 204/120/45
f 192/124/28 193/162/28 205/123/28
f 194/126/28 191/114/28 203/125/28
f 212/128/46 194/126/46 206/127/46
f 170/68/3 169/222/3 205/131/3
f 218/130/3 206/238/3 170/68/3
f 163/132/4 199/239/4 215/134/4
f 215/134/4 200/133/4 164/223/4
f 200/136/5 201/240/5 165/135/5
f 147/138/3 148/49/3 184/140/3
f 207/139/3 183/241/3 147/138/3
f 202/142/1 199/242/1 163/141/1
f 151/144/3 152/243/3 188/146/3
f 209/145/3 187/244/3 151/144/3
f 185/148/1 184/156/1 148/147/1
f 155/45/3 156/219/3 192/151/3
f 211/150/3 191/245/3 155/45/3
f 166/152/3 165/246/3 201/154/3
f 216/153/3 202/247/3 166/152/3
f 189/156/1 188/248/1 152/155/1
f 159/157/4 195/29/4 213/159/4
f 213/159/4 196/158/4 160/224/4
f 183/161/5 186/249/5 150/160/5
f 205/123/47 193/162/47 212/128/47
f 203/125/48 191/114/48 211/121/48
f 201/113/47 189/126/47 210/118/47
f 199/115/48 187/163/48 209/111/48
f 197/103/47 185/164/47 208/108/47
f 195/105/48 183/165/48 207/101/48
f 235/167/5 236/172/5 222/166/5
f 122/169/5 235/167/5 221/168/5
f 222/166/5 236/172/5 126/171/5
f 224/174/28 223/186/28 221/173/28
f 106/177/4 224/192/4 222/176/4
f 223/180/3 105/189/3 6/179/3
f 229/183/3 113/250/3 111/182/3
f 223/186/39 224/174/39 228/185/39
f 105/189/19 223/180/19 227/188/19
f 228/191/20 224/192/20 106/177/20
f 227/194/5 228/138/5 226/193/5
f 101/196/5 227/194/5 225/195/5
f 226/193/5 228/138/5 102/124/5
f 230/199/40 114/251/40 113/198/40
f 112/201/4 114/203/4 230/202/4
f 230/205/28 229/252/28 225/204/28
f 129/9/41 232/208/41 231/207/41
f 233/207/42 234/208/42 130/209/42
f 130/209/24 234/208/24 121/211/24
f 219/212/25 235/213/25 122/22/25
f 124/214/26 232/208/26 129/9/26
f 126/165/27 236/213/27 220/216/27
f 237/217/41 235/213/41 219/212/41
f 231/207/41 237/217/41 131/8/41
f 220/216/42 236/213/42 238/217/42
f 238/217/42 233/207/42 134/210/42
