# Blender 5.2.0 LTS
# www.blender.org
mtllib trafficLightEntityBlend.mtl
o Cube
v 0.713351 2.410279 -0.456676
v 0.713351 2.410279 0.456676
v -0.713351 2.410279 -0.456676
v -0.713351 2.410279 0.456676
v -0.713351 1.347068 0.456676
v 0.713351 1.347068 -0.456676
v 0.713351 1.347068 0.456676
v -0.713351 1.347068 -0.456676
v 0.713351 0.950234 -0.713351
v 0.713351 0.950234 0.713351
v -0.713351 0.950234 -0.713351
v -0.713351 0.950234 0.713351
v -0.480028 1.323717 0.713351
v -0.480028 2.433630 0.713351
v 0.480028 2.433630 -0.713351
v 0.480028 2.433630 0.713351
v -0.480028 2.433630 -0.713351
v 0.480028 1.323717 -0.713351
v 0.480028 1.323717 0.713351
v -0.480028 1.323717 -0.713351
v 0.713351 1.878673 0.596995
v 0.713351 1.878673 -0.596995
v -0.713351 1.878673 -0.587345
v -0.713351 1.878673 0.587345
v 0.677424 2.410279 -0.456676
v 0.677424 2.410279 0.456676
v 0.677424 1.878673 -0.596995
v 0.677424 1.347068 -0.456676
v 0.677424 1.878673 0.596995
v 0.677424 1.347068 0.456676
v -0.676450 1.878673 0.587345
v -0.676450 2.410279 0.456676
v -0.676450 2.410279 -0.456676
v -0.676450 1.878673 -0.587345
v -0.676450 1.347068 -0.456676
v -0.676450 1.347068 0.456676
v -0.713351 1.090393 0.713351
v -0.584139 2.786817 0.584139
v 0.584139 2.786817 0.584139
v -0.584139 2.786817 -0.584139
v 0.584139 2.786817 -0.584139
v 0.713351 1.090393 -0.713351
v 0.713351 1.090393 0.713351
v -0.713351 1.090393 -0.713351
v -0.611320 1.878673 0.713351
v 0.611320 1.878673 0.713351
v 0.584980 1.878673 -0.713351
v -0.584980 1.878673 -0.713351
v -0.611320 1.878673 0.678742
v -0.480028 2.433630 0.678742
v 0.480028 2.433630 0.678742
v 0.611320 1.878673 0.678742
v 0.480028 1.323717 0.678742
v -0.480028 1.323717 0.678742
v -0.480028 2.433630 -0.684317
v 0.480028 2.433630 -0.684317
v 0.584980 1.878673 -0.684317
v 0.480028 1.323717 -0.684317
v -0.584980 1.878673 -0.684317
v -0.480028 1.323717 -0.684317
v 0.713351 2.666954 0.713351
v -0.713351 2.666954 0.713351
v 0.713351 2.666954 -0.713351
v -0.713351 2.666954 -0.713351
v 0.603061 0.000000 -0.603061
v 0.713351 0.110290 -0.713351
v 0.603061 0.000000 0.603061
v 0.713351 0.110290 0.713351
v -0.713351 0.110290 -0.713351
v -0.603061 0.000000 -0.603061
v -0.603061 0.000000 0.603061
v -0.713351 0.110290 0.713351
v 0.696368 1.044228 -0.696368
v 0.695915 1.000876 -0.695915
v 0.692945 1.022585 -0.692945
v -0.695915 1.000876 0.695915
v -0.696368 1.044228 0.696368
v -0.692945 1.022585 0.692945
v 0.696368 1.044228 0.696368
v 0.695915 1.000876 0.695915
v 0.692945 1.022585 0.692945
v -0.695915 1.000876 -0.695915
v -0.696368 1.044228 -0.696368
v -0.692945 1.022585 -0.692945
v 0.722707 2.240289 -0.325734
v 0.707863 2.325530 -0.391395
v 0.718359 2.283445 -0.358977
v 0.707863 2.325530 0.391395
v 0.722707 2.240289 0.325734
v 0.718359 2.283445 0.358977
v 0.707863 1.878673 -0.509344
v 0.722707 1.878673 -0.421184
v 0.718359 1.878673 -0.465818
v 0.722707 1.517058 -0.325734
v 0.707863 1.431816 -0.391395
v 0.718359 1.473902 -0.358977
v 0.722707 1.878673 0.421184
v 0.707863 1.878673 0.509344
v 0.718359 1.878673 0.465818
v 0.707863 1.431816 0.391395
v 0.722707 1.517058 0.325734
v 0.718359 1.473902 0.358977
v -0.727384 1.878673 0.452635
v -0.705179 1.878673 0.536869
v -0.720881 1.878673 0.496038
v -0.705179 2.361262 0.418249
v -0.727384 2.279463 0.354121
v -0.720881 2.321611 0.387164
v -0.705179 2.361261 -0.418249
v -0.727384 2.279463 -0.354121
v -0.720881 2.321610 -0.387164
v -0.727384 1.878673 -0.452635
v -0.705179 1.878673 -0.536869
v -0.720881 1.878673 -0.496038
v -0.705179 1.396085 -0.418249
v -0.727384 1.477884 -0.354121
v -0.720881 1.435736 -0.387164
v -0.705179 1.396085 0.418249
v -0.727384 1.477884 0.354121
v -0.720881 1.435736 0.387164
v -0.500304 1.878673 0.708869
v -0.411712 1.878673 0.720664
v -0.456352 1.878673 0.717210
v -0.326374 2.239384 0.720664
v -0.394570 2.325596 0.708869
v -0.360737 2.282824 0.717210
v 0.326374 2.239384 0.720664
v 0.394570 2.325596 0.708869
v 0.360737 2.282824 0.717210
v 0.500304 1.878673 0.708869
v 0.411712 1.878673 0.720664
v 0.456352 1.878673 0.717210
v 0.326374 1.517963 0.720664
v 0.394570 1.431751 0.708869
v 0.360737 1.474523 0.717210
v -0.326374 1.517963 0.720664
v -0.394570 1.431751 0.708869
v -0.360737 1.474523 0.717210
v -0.326231 2.248021 -0.721876
v -0.397790 2.334382 -0.710624
v -0.362262 2.291505 -0.718580
v 0.397790 2.334382 -0.710624
v 0.326231 2.248021 -0.721876
v 0.362262 2.291505 -0.718580
v 0.396082 1.878673 -0.721876
v 0.483973 1.878673 -0.710624
v 0.440336 1.878673 -0.718580
v 0.397790 1.422965 -0.710624
v 0.326231 1.509326 -0.721876
v 0.362262 1.465842 -0.718580
v -0.483973 1.878673 -0.710624
v -0.396082 1.878673 -0.721876
v -0.440336 1.878673 -0.718580
v -0.326231 1.509326 -0.721876
v -0.397790 1.422965 -0.710624
v -0.362262 1.465842 -0.718580
vn -0.0000 1.0000 -0.0000
vn -0.9731 -0.2302 -0.0000
vn -0.0000 -1.0000 -0.0000
vn -0.0000 0.2552 -0.9669
vn 0.9826 -0.1858 -0.0000
vn -1.0000 -0.0000 -0.0000
vn 1.0000 -0.0000 -0.0000
vn -0.0000 -0.2552 -0.9669
vn -0.0000 0.2552 0.9669
vn -0.0000 -0.2552 0.9669
vn -0.0000 -0.2387 -0.9711
vn -0.0000 -0.2387 0.9711
vn -0.0000 0.2387 0.9711
vn -0.0000 0.2387 -0.9711
vn -0.0000 -0.0000 1.0000
vn -0.0000 -0.0000 -1.0000
vn -0.9731 0.2302 -0.0000
vn 0.9731 -0.2302 -0.0000
vn 0.9731 0.2302 -0.0000
vn -0.9826 -0.1858 -0.0000
vn 0.9826 0.1858 -0.0000
vn -0.9826 0.1858 -0.0000
vn -0.0000 0.7331 0.6801
vn 0.6801 0.7331 -0.0000
vn -0.6801 0.7331 -0.0000
vn -0.0000 0.7331 -0.6801
vn -0.7071 -0.7071 -0.0000
vn -0.0000 -0.7071 -0.7071
vn -0.0000 -0.7071 0.7071
vn 0.7071 -0.7071 -0.0000
vn -0.0000 -0.1562 -0.9877
vn -0.0000 0.1355 -0.9908
vn 0.9877 -0.1562 -0.0000
vn 0.9908 0.1355 -0.0000
vn -0.9877 -0.1562 -0.0000
vn -0.9908 0.1355 -0.0000
vn -0.0000 -0.1562 0.9877
vn -0.0000 0.1355 0.9908
vn 0.9385 -0.3453 -0.0000
vn -0.0000 -0.3453 -0.9385
vn 0.9455 0.3256 -0.0000
vn -0.0000 0.3256 -0.9455
vn -0.0000 0.3256 0.9455
vn -0.9455 0.3256 -0.0000
vn -0.0000 -0.3453 0.9385
vn -0.9385 -0.3453 -0.0000
vn 0.9703 0.2420 -0.0000
vn 0.9950 0.1002 -0.0000
vn 0.9950 -0.0256 -0.0969
vn 0.9703 -0.0618 -0.2340
vn 0.9703 -0.0618 0.2340
vn 0.9950 -0.0256 0.0969
vn 0.9950 -0.1002 -0.0000
vn 0.9703 -0.2420 -0.0000
vn 0.9703 0.0618 0.2340
vn 0.9950 0.0256 0.0969
vn 0.9950 0.0256 -0.0969
vn 0.9703 0.0618 -0.2340
vn -0.9298 0.0879 0.3575
vn -0.9883 0.0364 0.1481
vn -0.9298 0.3682 -0.0000
vn -0.9883 0.1525 -0.0000
vn -0.9298 -0.0879 -0.3575
vn -0.9883 -0.0364 -0.1481
vn -0.9883 -0.1525 -0.0000
vn -0.9298 -0.3682 -0.0000
vn -0.9298 0.0879 -0.3575
vn -0.9883 0.0364 -0.1481
vn -0.9298 -0.0879 0.3575
vn -0.9883 -0.0364 0.1481
vn -0.0772 0.0183 0.9969
vn -0.1863 0.0441 0.9815
vn -0.0000 0.1914 0.9815
vn -0.0000 0.0793 0.9969
vn 0.0772 -0.0183 0.9969
vn 0.1863 -0.0441 0.9815
vn -0.0000 -0.0793 0.9969
vn -0.0000 -0.1914 0.9815
vn -0.0772 -0.0183 0.9969
vn -0.1863 -0.0441 0.9815
vn 0.0772 0.0183 0.9969
vn 0.1863 0.0441 0.9815
vn -0.0000 0.1824 -0.9832
vn -0.0000 0.0756 -0.9971
vn 0.1793 -0.0339 -0.9832
vn 0.0743 -0.0140 -0.9971
vn -0.0743 -0.0140 -0.9971
vn -0.1793 -0.0339 -0.9832
vn -0.0000 -0.0756 -0.9971
vn -0.0000 -0.1824 -0.9832
vn 0.1793 0.0339 -0.9832
vn 0.0743 0.0140 -0.9971
vn -0.0743 0.0140 -0.9971
vn -0.1793 0.0339 -0.9832
vn 0.9411 0.3380 -0.0000
vn 0.9411 0.0863 -0.3268
vn 0.9411 0.0863 0.3268
vn 0.9411 -0.0863 -0.3268
vn 0.9411 -0.3380 -0.0000
vn 0.9411 -0.0863 0.3268
vn -0.8627 0.1207 0.4910
vn -0.8627 -0.1207 0.4910
vn -0.8627 0.5056 -0.0000
vn -0.8627 0.1207 -0.4910
vn -0.8627 -0.1207 -0.4910
vn -0.8627 -0.5057 -0.0000
vn -0.2614 0.0618 0.9632
vn -0.2614 -0.0618 0.9632
vn -0.0000 0.2686 0.9632
vn 0.2614 0.0618 0.9632
vn 0.2614 -0.0618 0.9632
vn -0.0000 -0.2686 0.9632
vn -0.0000 0.2562 -0.9666
vn -0.2518 0.0476 -0.9666
vn 0.2518 0.0476 -0.9666
vn 0.2518 -0.0476 -0.9666
vn -0.0000 -0.2562 -0.9666
vn -0.2518 -0.0476 -0.9666
vn -0.8627 0.5057 -0.0000
vt 0.515941 0.737711
vt 0.307065 0.528835
vt 0.515941 0.528835
vt 0.832635 0.009628
vt 0.838822 0.108879
vt 0.832635 0.108879
vt 0.499908 0.943367
vt 0.493310 0.780069
vt 0.499908 0.780069
vt 0.890355 0.409066
vt 0.883932 0.314052
vt 0.890355 0.314052
vt 0.909611 0.009628
vt 0.914802 0.108873
vt 0.909611 0.108873
vt 0.032157 0.150564
vt 0.009628 0.291500
vt 0.009628 0.009628
vt 0.329854 0.055519
vt 0.539043 0.009628
vt 0.493152 0.055519
vt 0.055519 0.055519
vt 0.264708 0.009628
vt 0.218817 0.055519
vt 0.304767 0.150564
vt 0.283963 0.291500
vt 0.283963 0.009628
vt 0.518240 0.150564
vt 0.539043 0.291500
vt 0.242179 0.150564
vt 0.264708 0.291500
vt 0.493152 0.245610
vt 0.329854 0.245610
vt 0.218817 0.245610
vt 0.055519 0.245610
vt 0.883932 0.218975
vt 0.890355 0.218975
vt 0.883932 0.104706
vt 0.890355 0.199719
vt 0.883932 0.199719
vt 0.959502 0.009628
vt 0.965925 0.172926
vt 0.959502 0.172926
vt 0.883932 0.009628
vt 0.890355 0.104706
vt 0.965925 0.355480
vt 0.959502 0.192182
vt 0.965925 0.192182
vt 0.858078 0.218975
vt 0.864676 0.314050
vt 0.858078 0.314050
vt 0.864676 0.104704
vt 0.858078 0.009628
vt 0.864676 0.009628
vt 0.519164 0.780069
vt 0.525761 0.943367
vt 0.519164 0.943367
vt 0.864676 0.199719
vt 0.858078 0.104704
vt 0.864676 0.409066
vt 0.858078 0.409066
vt 0.795137 0.150564
vt 0.813379 0.009628
vt 0.813379 0.291500
vt 0.771663 0.051344
vt 0.558299 0.009628
vt 0.222992 0.547449
vt 0.009628 0.505733
vt 0.264708 0.505733
vt 0.241756 0.646669
vt 0.264708 0.787606
vt 0.576541 0.150564
vt 0.558299 0.291500
vt 0.032579 0.646669
vt 0.009628 0.787606
vt 0.222992 0.745890
vt 0.051344 0.745890
vt 0.771663 0.249785
vt 0.600015 0.249785
vt 0.838822 0.208069
vt 0.832635 0.208069
vt 0.838822 0.326575
vt 0.832634 0.227325
vt 0.838822 0.227325
vt 0.934058 0.009628
vt 0.940246 0.181276
vt 0.934058 0.181276
vt 0.838822 0.425765
vt 0.832634 0.326575
vt 0.934058 0.200532
vt 0.940246 0.372180
vt 0.934058 0.372180
vt 0.990372 0.181276
vt 0.985181 0.009628
vt 0.990372 0.009628
vt 0.990372 0.372180
vt 0.985181 0.200532
vt 0.990372 0.200532
vt 0.914802 0.326570
vt 0.909611 0.227325
vt 0.914802 0.227325
vt 0.914802 0.208069
vt 0.909611 0.208069
vt 0.914802 0.425765
vt 0.909611 0.326570
vt 0.307065 0.737711
vt 0.283963 0.505733
vt 0.539043 0.505733
vt 0.283963 0.760813
vt 0.539043 0.760813
vt 0.029347 0.486477
vt 0.264708 0.466732
vt 0.244989 0.486477
vt 0.029347 0.982582
vt 0.264708 0.962838
vt 0.244989 0.982582
vt 0.578018 0.486477
vt 0.813379 0.466732
vt 0.793660 0.486477
vt 0.303682 0.486477
vt 0.539043 0.466732
vt 0.519324 0.486477
vt 0.009628 0.812665
vt 0.009628 0.962838
vt 0.283963 0.316559
vt 0.283963 0.466732
vt 0.773941 0.721375
vt 0.558299 0.505733
vt 0.773941 0.505733
vt 0.558299 0.316559
vt 0.558299 0.466732
vt 0.009628 0.316559
vt 0.009628 0.466732
vt 0.261671 0.795863
vt 0.013276 0.799734
vt 0.012664 0.795863
vt 0.261059 0.799734
vt 0.012745 0.803614
vt 0.536007 0.299758
vt 0.287612 0.303628
vt 0.287000 0.299758
vt 0.535395 0.303628
vt 0.287081 0.307509
vt 0.261671 0.299758
vt 0.013276 0.303629
vt 0.012664 0.299758
vt 0.261059 0.303629
vt 0.012745 0.307509
vt 0.810342 0.299758
vt 0.561948 0.303628
vt 0.561335 0.299758
vt 0.809730 0.303628
vt 0.561417 0.307509
vt 0.539043 0.316559
vt 0.264708 0.812665
vt 0.813379 0.316559
vt 0.264708 0.316559
vt 0.808342 0.542492
vt 0.815864 0.676651
vt 0.808342 0.682447
vt 0.815864 0.548288
vt 0.823579 0.670708
vt 0.952885 0.670708
vt 0.888233 0.695753
vt 0.888232 0.687773
vt 0.960602 0.676651
vt 0.888236 0.703535
vt 0.888236 0.521404
vt 0.960602 0.548288
vt 0.888233 0.529186
vt 0.952885 0.554232
vt 0.888232 0.537166
vt 0.968129 0.682447
vt 0.823579 0.554232
vt 0.379002 0.981066
vt 0.299806 0.954301
vt 0.378998 0.973766
vt 0.307340 0.948393
vt 0.378997 0.966006
vt 0.292720 0.810301
vt 0.292720 0.959858
vt 0.307340 0.821767
vt 0.379002 0.789093
vt 0.458191 0.815859
vt 0.378998 0.796393
vt 0.450654 0.821767
vt 0.378997 0.804153
vt 0.450654 0.948393
vt 0.458191 0.954301
vt 0.465284 0.959858
vt 0.299806 0.815859
vt 0.593019 0.791577
vt 0.657511 0.768338
vt 0.657510 0.776319
vt 0.585253 0.785433
vt 0.657512 0.760480
vt 0.577607 0.779384
vt 0.585253 0.914425
vt 0.577607 0.920474
vt 0.593019 0.908281
vt 0.722001 0.908281
vt 0.657511 0.931520
vt 0.657510 0.923539
vt 0.729768 0.914425
vt 0.657512 0.939378
vt 0.722001 0.791577
vt 0.729768 0.785433
vt 0.737418 0.920474
vt 0.737418 0.779384
vt 0.793734 0.774099
vt 0.801398 0.909988
vt 0.793734 0.916340
vt 0.801398 0.780451
vt 0.809172 0.903546
vt 0.875210 0.758690
vt 0.949018 0.780451
vt 0.875208 0.766492
vt 0.941243 0.786893
vt 0.875207 0.774404
vt 0.941243 0.903546
vt 0.875208 0.923947
vt 0.875207 0.916035
vt 0.949018 0.909988
vt 0.875210 0.931749
vt 0.956686 0.916340
vt 0.809172 0.786893
vt 0.793197 0.530821
vt 0.888243 0.719206
vt 0.793197 0.694119
vt 0.888243 0.505733
vt 0.968129 0.542492
vt 0.983288 0.694119
vt 0.983288 0.530821
vt 0.379009 0.990091
vt 0.283963 0.966729
vt 0.283964 0.803431
vt 0.379009 0.780069
vt 0.465284 0.810301
vt 0.474054 0.803431
vt 0.474054 0.966729
vt 0.657519 0.740631
vt 0.756740 0.764105
vt 0.558299 0.764105
vt 0.657519 0.959227
vt 0.558299 0.935753
vt 0.756740 0.935753
vt 0.775996 0.759396
vt 0.875216 0.949808
vt 0.775996 0.931044
vt 0.875216 0.740631
vt 0.956686 0.774099
vt 0.974437 0.759396
vt 0.974436 0.931044
vt 0.838822 0.009628
vt 0.493310 0.943367
vt 0.883932 0.409066
vt 0.914802 0.009628
vt 0.965925 0.009628
vt 0.890355 0.009628
vt 0.959502 0.355480
vt 0.864676 0.218975
vt 0.525761 0.780069
vt 0.858078 0.199719
vt 0.600015 0.051344
vt 0.051344 0.547449
vt 0.940246 0.009628
vt 0.832634 0.425765
vt 0.940246 0.200532
vt 0.985181 0.181276
vt 0.985181 0.372180
vt 0.909611 0.425765
vt 0.558299 0.721375
vt 0.261590 0.803614
vt 0.535926 0.307509
vt 0.261590 0.307509
vt 0.810261 0.307509
s 0
usemtl Material
f 40/1/1 39/2/1 41/3/1
f 16/4/2 52/5/2 46/6/2
f 3/7/3 32/8/3 4/9/3
f 7/10/4 29/11/4 21/12/4
f 17/13/5 59/14/5 48/15/5
f 24/16/6 37/17/6 62/18/6
f 1/19/7 61/20/7 2/21/7
f 4/22/6 64/23/6 3/24/6
f 22/25/7 42/26/7 63/27/7
f 21/28/7 61/20/7 43/29/7
f 23/30/6 64/23/6 44/31/6
f 7/32/7 42/26/7 6/33/7
f 8/34/6 37/17/6 5/35/6
f 21/12/8 26/36/8 2/37/8
f 22/38/9 28/39/9 6/40/9
f 2/41/3 25/42/3 1/43/3
f 1/44/10 27/45/10 22/38/10
f 6/46/1 30/47/1 7/48/1
f 4/49/11 31/50/11 24/51/11
f 23/52/12 33/53/12 3/54/12
f 5/55/1 35/56/1 8/57/1
f 8/58/13 34/59/13 23/52/13
f 24/51/14 36/60/14 5/61/14
f 45/62/15 62/63/15 37/64/15
f 14/65/15 61/66/15 62/63/15
f 15/67/16 64/68/16 63/69/16
f 47/70/16 63/69/16 42/71/16
f 46/72/15 43/73/15 61/66/15
f 48/74/16 44/75/16 64/68/16
f 18/76/16 44/75/16 20/77/16
f 13/78/15 43/73/15 19/79/15
f 46/6/17 53/80/17 19/81/17
f 45/82/18 50/83/18 14/84/18
f 19/85/1 54/86/1 13/87/1
f 13/88/19 49/89/19 45/82/19
f 14/90/3 51/91/3 16/92/3
f 20/93/1 58/94/1 18/95/1
f 15/96/3 55/97/3 17/98/3
f 47/99/20 56/100/20 15/101/20
f 48/15/21 60/102/21 20/103/21
f 18/104/22 57/105/22 47/99/22
f 38/106/23 61/107/23 39/2/23
f 39/2/24 63/108/24 41/3/24
f 40/1/25 62/109/25 38/106/25
f 41/3/26 64/110/26 40/1/26
f 71/111/27 69/112/27 70/113/27
f 70/114/28 66/115/28 65/116/28
f 67/117/29 72/118/29 71/119/29
f 65/120/30 68/121/30 67/122/30
f 11/123/16 66/115/16 69/124/16
f 9/125/7 68/121/7 66/126/7
f 65/127/3 71/128/3 70/129/3
f 10/130/15 72/118/15 68/131/15
f 12/132/6 69/112/6 72/133/6
f 73/134/31 84/135/31 83/136/31
f 75/137/32 82/138/32 84/135/32
f 79/139/33 75/140/33 73/141/33
f 81/142/34 74/143/34 75/140/34
f 83/144/35 78/145/35 77/146/35
f 84/147/36 76/148/36 78/145/36
f 77/149/37 81/150/37 79/151/37
f 78/152/38 80/153/38 81/150/38
f 42/26/39 79/139/39 73/141/39
f 44/75/40 73/134/40 83/136/40
f 74/143/41 10/154/41 9/125/41
f 82/138/42 9/155/42 11/123/42
f 80/153/43 12/156/43 10/130/43
f 76/148/44 11/157/44 12/132/44
f 43/73/45 77/149/45 79/151/45
f 37/17/46 83/144/46 77/146/46
f 88/158/47 87/159/47 86/160/47
f 90/161/48 85/162/48 87/159/48
f 94/163/49 93/164/49 92/165/49
f 96/166/50 91/167/50 93/164/50
f 98/168/51 102/169/51 99/170/51
f 99/170/52 101/171/52 97/172/52
f 94/163/53 102/169/53 96/166/53
f 102/169/54 95/173/54 96/166/54
f 98/168/55 90/161/55 88/158/55
f 99/170/56 89/174/56 90/161/56
f 85/162/57 93/164/57 87/159/57
f 87/159/58 91/167/58 86/160/58
f 104/175/59 108/176/59 105/177/59
f 105/177/60 107/178/60 103/179/60
f 109/180/61 108/176/61 106/181/61
f 108/176/62 110/182/62 107/178/62
f 113/183/63 117/184/63 114/185/63
f 114/185/64 116/186/64 112/187/64
f 119/188/65 117/184/65 120/189/65
f 117/184/66 118/190/66 120/189/66
f 113/183/67 111/191/67 109/180/67
f 114/185/68 110/182/68 111/191/68
f 104/175/69 120/189/69 118/190/69
f 105/177/70 119/188/70 120/189/70
f 124/192/71 123/193/71 122/194/71
f 126/195/72 121/196/72 123/193/72
f 125/197/73 129/198/73 128/199/73
f 126/195/74 127/200/74 129/198/74
f 133/201/75 132/202/75 131/203/75
f 135/204/76 130/205/76 132/202/76
f 136/206/77 135/204/77 133/201/77
f 138/207/78 134/208/78 135/204/78
f 136/206/79 123/193/79 138/207/79
f 138/207/80 121/196/80 137/209/80
f 127/200/81 132/202/81 129/198/81
f 129/198/82 130/205/82 128/199/82
f 142/210/83 141/211/83 140/212/83
f 144/213/84 139/214/84 141/211/84
f 146/215/85 150/216/85 147/217/85
f 147/217/86 149/218/86 145/219/86
f 154/220/87 153/221/87 152/222/87
f 156/223/88 151/224/88 153/221/88
f 149/218/89 156/223/89 154/220/89
f 150/216/90 155/225/90 156/223/90
f 146/215/91 144/213/91 142/210/91
f 147/217/92 143/226/92 144/213/92
f 139/214/93 153/221/93 141/211/93
f 141/211/94 151/224/94 140/212/94
f 86/160/95 26/227/95 88/158/95
f 92/165/7 89/174/7 101/171/7
f 86/160/96 27/228/96 25/229/96
f 88/158/97 29/230/97 98/168/97
f 95/173/98 27/228/98 91/167/98
f 100/231/99 28/232/99 95/173/99
f 100/231/100 29/230/100 30/233/100
f 106/181/101 31/234/101 32/235/101
f 103/179/6 110/182/6 116/186/6
f 118/190/102 31/234/102 104/175/102
f 106/181/103 33/236/103 109/180/103
f 109/180/104 34/237/104 113/183/104
f 115/238/105 34/237/105 35/239/105
f 115/238/106 36/240/106 118/190/106
f 125/197/107 49/241/107 121/196/107
f 131/203/15 124/192/15 136/206/15
f 137/209/108 49/241/108 54/242/108
f 128/199/109 50/243/109 125/197/109
f 128/199/110 52/244/110 51/245/110
f 134/208/111 52/244/111 130/205/111
f 137/209/112 53/246/112 134/208/112
f 140/212/113 56/247/113 142/210/113
f 152/222/16 143/226/16 149/218/16
f 140/212/114 59/248/114 55/249/114
f 142/210/115 57/250/115 146/215/115
f 148/251/116 57/250/116 58/252/116
f 148/251/117 60/253/117 155/225/117
f 155/225/118 59/248/118 151/224/118
f 40/1/1 38/106/1 39/2/1
f 16/4/2 51/254/2 52/5/2
f 3/7/3 33/255/3 32/8/3
f 7/10/4 30/256/4 29/11/4
f 17/13/5 55/257/5 59/14/5
f 62/18/6 4/22/6 24/16/6
f 24/16/6 5/35/6 37/17/6
f 1/19/7 63/27/7 61/20/7
f 4/22/6 62/18/6 64/23/6
f 63/27/7 1/19/7 22/25/7
f 22/25/7 6/33/7 42/26/7
f 43/29/7 7/32/7 21/28/7
f 21/28/7 2/21/7 61/20/7
f 44/31/6 8/34/6 23/30/6
f 23/30/6 3/24/6 64/23/6
f 7/32/7 43/29/7 42/26/7
f 8/34/6 44/31/6 37/17/6
f 21/12/8 29/11/8 26/36/8
f 22/38/9 27/45/9 28/39/9
f 2/41/3 26/258/3 25/42/3
f 1/44/10 25/259/10 27/45/10
f 6/46/1 28/260/1 30/47/1
f 4/49/11 32/261/11 31/50/11
f 23/52/12 34/59/12 33/53/12
f 5/55/1 36/262/1 35/56/1
f 8/58/13 35/263/13 34/59/13
f 24/51/14 31/50/14 36/60/14
f 37/64/15 13/78/15 45/62/15
f 45/62/15 14/65/15 62/63/15
f 14/65/15 16/264/15 61/66/15
f 15/67/16 17/265/16 64/68/16
f 42/71/16 18/76/16 47/70/16
f 47/70/16 15/67/16 63/69/16
f 61/66/15 16/264/15 46/72/15
f 46/72/15 19/79/15 43/73/15
f 64/68/16 17/265/16 48/74/16
f 48/74/16 20/77/16 44/75/16
f 18/76/16 42/71/16 44/75/16
f 13/78/15 37/64/15 43/73/15
f 46/6/17 52/5/17 53/80/17
f 45/82/18 49/89/18 50/83/18
f 19/85/1 53/266/1 54/86/1
f 13/88/19 54/267/19 49/89/19
f 14/90/3 50/268/3 51/91/3
f 20/93/1 60/269/1 58/94/1
f 15/96/3 56/270/3 55/97/3
f 47/99/20 57/105/20 56/100/20
f 48/15/21 59/14/21 60/102/21
f 18/104/22 58/271/22 57/105/22
f 38/106/23 62/109/23 61/107/23
f 39/2/24 61/107/24 63/108/24
f 40/1/25 64/110/25 62/109/25
f 41/3/26 63/108/26 64/110/26
f 71/111/27 72/133/27 69/112/27
f 70/114/28 69/124/28 66/115/28
f 67/117/29 68/131/29 72/118/29
f 65/120/30 66/126/30 68/121/30
f 11/123/16 9/155/16 66/115/16
f 9/125/7 10/154/7 68/121/7
f 65/127/3 67/272/3 71/128/3
f 10/130/15 12/156/15 72/118/15
f 12/132/6 11/157/6 69/112/6
f 73/134/31 75/137/31 84/135/31
f 75/137/32 74/273/32 82/138/32
f 79/139/33 81/142/33 75/140/33
f 81/142/34 80/274/34 74/143/34
f 83/144/35 84/147/35 78/145/35
f 84/147/36 82/275/36 76/148/36
f 77/149/37 78/152/37 81/150/37
f 78/152/38 76/276/38 80/153/38
f 42/26/39 43/29/39 79/139/39
f 44/75/40 42/71/40 73/134/40
f 74/143/41 80/274/41 10/154/41
f 82/138/42 74/273/42 9/155/42
f 80/153/43 76/276/43 12/156/43
f 76/148/44 82/275/44 11/157/44
f 43/73/45 37/64/45 77/149/45
f 37/17/46 44/31/46 83/144/46
f 88/158/47 90/161/47 87/159/47
f 90/161/48 89/174/48 85/162/48
f 94/163/49 96/166/49 93/164/49
f 96/166/50 95/173/50 91/167/50
f 98/168/51 100/231/51 102/169/51
f 99/170/52 102/169/52 101/171/52
f 94/163/53 101/171/53 102/169/53
f 102/169/54 100/231/54 95/173/54
f 98/168/55 99/170/55 90/161/55
f 99/170/56 97/172/56 89/174/56
f 85/162/57 92/165/57 93/164/57
f 87/159/58 93/164/58 91/167/58
f 104/175/59 106/181/59 108/176/59
f 105/177/60 108/176/60 107/178/60
f 109/180/61 111/191/61 108/176/61
f 108/176/62 111/191/62 110/182/62
f 113/183/63 115/238/63 117/184/63
f 114/185/64 117/184/64 116/186/64
f 119/188/65 116/186/65 117/184/65
f 117/184/66 115/238/66 118/190/66
f 113/183/67 114/185/67 111/191/67
f 114/185/68 112/187/68 110/182/68
f 104/175/69 105/177/69 120/189/69
f 105/177/70 103/179/70 119/188/70
f 124/192/71 126/195/71 123/193/71
f 126/195/72 125/197/72 121/196/72
f 125/197/73 126/195/73 129/198/73
f 126/195/74 124/192/74 127/200/74
f 133/201/75 135/204/75 132/202/75
f 135/204/76 134/208/76 130/205/76
f 136/206/77 138/207/77 135/204/77
f 138/207/78 137/209/78 134/208/78
f 136/206/79 122/194/79 123/193/79
f 138/207/80 123/193/80 121/196/80
f 127/200/81 131/203/81 132/202/81
f 129/198/82 132/202/82 130/205/82
f 142/210/83 144/213/83 141/211/83
f 144/213/84 143/226/84 139/214/84
f 146/215/85 148/251/85 150/216/85
f 147/217/86 150/216/86 149/218/86
f 154/220/87 156/223/87 153/221/87
f 156/223/88 155/225/88 151/224/88
f 149/218/89 150/216/89 156/223/89
f 150/216/90 148/251/90 155/225/90
f 146/215/91 147/217/91 144/213/91
f 147/217/92 145/219/92 143/226/92
f 139/214/93 152/222/93 153/221/93
f 141/211/94 153/221/94 151/224/94
f 86/160/95 25/229/95 26/227/95
f 101/171/7 94/163/7 92/165/7
f 92/165/7 85/162/7 89/174/7
f 89/174/7 97/172/7 101/171/7
f 86/160/96 91/167/96 27/228/96
f 88/158/97 26/227/97 29/230/97
f 95/173/98 28/232/98 27/228/98
f 100/231/99 30/233/99 28/232/99
f 100/231/100 98/168/100 29/230/100
f 106/181/101 104/175/101 31/234/101
f 116/186/6 119/188/6 103/179/6
f 103/179/6 107/178/6 110/182/6
f 110/182/6 112/187/6 116/186/6
f 118/190/102 36/240/102 31/234/102
f 106/181/119 32/235/119 33/236/119
f 109/180/104 33/236/104 34/237/104
f 115/238/105 113/183/105 34/237/105
f 115/238/106 35/239/106 36/240/106
f 125/197/107 50/243/107 49/241/107
f 136/206/15 133/201/15 131/203/15
f 131/203/15 127/200/15 124/192/15
f 124/192/15 122/194/15 136/206/15
f 137/209/108 121/196/108 49/241/108
f 128/199/109 51/245/109 50/243/109
f 128/199/110 130/205/110 52/244/110
f 134/208/111 53/246/111 52/244/111
f 137/209/112 54/242/112 53/246/112
f 140/212/113 55/249/113 56/247/113
f 149/218/16 154/220/16 152/222/16
f 152/222/16 139/214/16 143/226/16
f 143/226/16 145/219/16 149/218/16
f 140/212/114 151/224/114 59/248/114
f 142/210/115 56/247/115 57/250/115
f 148/251/116 146/215/116 57/250/116
f 148/251/117 58/252/117 60/253/117
f 155/225/118 60/253/118 59/248/118
